PathFileType	4	(X/Y/Z)	OpenSim_Sub11_EMGPreOp_Magnet.trc
DataRate	CameraRate	NumFrames	NumMarkers	Units	OrigDataRate	OrigDataStartFrame	OrigNumFrames
100	100	16	8	m	100	1472	5885
Frame#	Time	torso_imu_offset_imu	pelvis_imu_offset_imu	tibia_r_imu_offset_imu	femur_r_imu_offset_imu	tibia_l_imu_offset_imu	femur_l_imu_offset_imu	toes_r_imu_offset_imu	toes_l_imu_offset_imu
				X1	Y1	Z1	X2	Y2	Z2	X3	Y3	Z3	X4	Y4	Z4	X5	Y5	Z5	X6	Y6	Z6	X7	Y7	Z7	X8		Y8	Z8	

1472	14.71000000	-0.93621299	-0.19264673	0.01274987	-0.53331732	0.11073791	-0.62683844	-0.67239284	-0.46433076	-0.22208775	-0.61953653	-0.55008727	0.04605453	-0.47798890	0.69177724	0.03808632	-0.75467994	-0.10990215	0.27297765	-0.56217417	-0.30148294	-0.39934431	-0.79055620	0.20297518	-0.00385773
1473	14.72000000	-0.93545528	-0.19051311	0.01201846	-0.53561207	0.10703455	-0.63945991	-0.66754409	-0.46013349	-0.22267511	-0.62138756	-0.55052912	0.03647121	-0.50108868	0.67996236	0.01472056	-0.75711741	-0.10965029	0.26598452	-0.56610247	-0.30312997	-0.41358094	-0.78873761	0.19593322	-0.04349930
1474	14.73000000	-0.93943963	-0.19003909	0.00988455	-0.54143289	0.09894884	-0.63613336	-0.66880212	-0.46611653	-0.22428629	-0.62220496	-0.55989809	0.04027316	-0.52589312	0.66066524	0.00935519	-0.76081351	-0.11541269	0.27162678	-0.57080935	-0.30867961	-0.40664775	-0.79186978	0.18550563	-0.06590761
1475	14.74000000	-0.93906871	-0.18878501	0.00747675	-0.53521589	0.09910986	-0.63642929	-0.66640018	-0.46684416	-0.22260942	-0.61575913	-0.55980350	0.03949172	-0.54267526	0.64039268	0.00526831	-0.75610165	-0.11528418	0.27163170	-0.56593612	-0.31125233	-0.40984198	-0.78367618	0.17569747	-0.09545727
1476	14.75000000	-0.93801622	-0.19108530	0.00617850	-0.52832546	0.09458118	-0.63631524	-0.66523044	-0.47293820	-0.23114672	-0.60986908	-0.56150161	0.03936093	-0.55988496	0.61917829	0.01137425	-0.75040431	-0.11303487	0.27752998	-0.55870339	-0.31419905	-0.40935733	-0.77397853	0.16558597	-0.11800077
1477	14.76000000	-0.93812619	-0.19010489	0.01002025	-0.53553454	0.09808640	-0.64399071	-0.66897419	-0.47403821	-0.22808642	-0.61512443	-0.55962151	0.03471068	-0.58500203	0.60787926	0.01075114	-0.75590225	-0.10642138	0.27323016	-0.56790750	-0.31138473	-0.41589825	-0.77874030	0.16159538	-0.14636805
1478	14.77000000	-0.93996691	-0.18783094	0.01737654	-0.54313487	0.09434028	-0.64588660	-0.66279505	-0.47341740	-0.22568522	-0.61897840	-0.56134918	0.02858151	-0.61070669	0.58295444	0.01869625	-0.76256447	-0.10811370	0.27131895	-0.57246736	-0.31737613	-0.42295247	-0.78187453	0.14097980	-0.16855097
1479	14.78000000	-0.93409800	-0.18547662	0.01812333	-0.53731480	0.07610292	-0.64179168	-0.66340765	-0.47571896	-0.22731480	-0.61545939	-0.58153929	0.03247580	-0.62594837	0.54592961	0.03605410	-0.76019132	-0.12141693	0.28122728	-0.57166249	-0.33617518	-0.42008447	-0.77253893	0.10790676	-0.18299731
1480	14.79000000	-0.93953141	-0.18404821	0.01617955	-0.53527587	0.08792541	-0.64351715	-0.66031017	-0.47982998	-0.22431153	-0.61363599	-0.57149568	0.03320094	-0.63768970	0.53872021	0.05152642	-0.75266920	-0.10790049	0.28172563	-0.56845435	-0.32395581	-0.42111056	-0.76738978	0.09967575	-0.20368535
1481	14.80000000	-0.94286515	-0.18408582	0.02251294	-0.52941252	0.09094846	-0.64293211	-0.65971839	-0.47872733	-0.22220681	-0.60197596	-0.56673686	0.03547230	-0.64682422	0.52087497	0.06812458	-0.74620509	-0.09856014	0.28756822	-0.56004403	-0.32384465	-0.42134286	-0.75690639	0.08507204	-0.21719050
1482	14.81000000	-0.93430359	-0.18502383	0.01696240	-0.53841844	0.08554455	-0.64431771	-0.65641914	-0.48292883	-0.22467683	-0.60843748	-0.57767873	0.03356975	-0.67237169	0.49096153	0.07843133	-0.75527652	-0.10200780	0.28954892	-0.57112630	-0.33376099	-0.42526612	-0.76193512	0.05985547	-0.23131667
1483	14.82000000	-0.93519760	-0.18487204	0.01323106	-0.53445875	0.08863285	-0.65027130	-0.65176862	-0.48545273	-0.22893560	-0.60285671	-0.57599400	0.02953916	-0.68030728	0.47254516	0.08378283	-0.74953002	-0.09468314	0.28535152	-0.56554946	-0.33091233	-0.43667556	-0.75287704	0.04291630	-0.25700569
1484	14.83000000	-0.94111069	-0.17897160	0.01792794	-0.52801912	0.08431415	-0.64785638	-0.65599650	-0.48867406	-0.22344409	-0.59767992	-0.58090231	0.03589361	-0.69173914	0.44705681	0.09778867	-0.74662567	-0.09036871	0.29349723	-0.56328203	-0.33536989	-0.43380998	-0.74603213	0.02424402	-0.26713675
1485	14.84000000	-0.93797569	-0.18061293	0.01609629	-0.52877765	0.08473014	-0.65281698	-0.64965953	-0.48960596	-0.22275192	-0.59695478	-0.58211266	0.02917514	-0.70422339	0.42662322	0.10131837	-0.74449883	-0.08436204	0.29385333	-0.56496581	-0.33683640	-0.44019250	-0.73956583	0.00716385	-0.28866151
1486	14.85000000	-0.94068588	-0.18620475	0.02104643	-0.53373711	0.08663474	-0.65138317	-0.65075242	-0.49283562	-0.22073258	-0.59876614	-0.58187607	0.03286925	-0.71873277	0.40770707	0.10575085	-0.74897549	-0.07612852	0.29991636	-0.57062486	-0.33756013	-0.44169838	-0.73558218	-0.00411915	-0.30566922
1487	14.86000000	-0.93649251	-0.18661545	0.02715709	-0.53364510	0.08206823	-0.63893019	-0.64970113	-0.49379581	-0.21915164	-0.59486685	-0.58923914	0.04492846	-0.72853959	0.38330451	0.12088175	-0.74732525	-0.06945649	0.31382898	-0.57132364	-0.34617224	-0.43327219	-0.72813495	-0.01611369	-0.30713028
